HIERARCHY
ROOT Hips
{
    OFFSET   0.000000   0.000000   0.000000
    CHANNELS 6 Xposition Yposition Zposition Zrotation Xrotation Yrotation
    JOINT Chest
    {
        OFFSET   0.000000   8.007230   0.000000
        CHANNELS 3 Zrotation Xrotation Yrotation
        JOINT Chest2
        {
            OFFSET   0.000000  22.077100   0.000000
            CHANNELS 3 Zrotation Xrotation Yrotation
            JOINT Neck
            {
                OFFSET   0.000000  23.255100   0.000000
                CHANNELS 3 Zrotation Xrotation Yrotation
                JOINT Head
                {
                    OFFSET   0.000000  14.370100   1.956600
                    CHANNELS 3 Zrotation Xrotation Yrotation
                    End Site
                    {
                        OFFSET   0.000000  19.566000   0.000000
                    }
                }
            }
            JOINT LeftCollar
            {
                OFFSET   3.911900  19.017000  -0.467063
                CHANNELS 3 Zrotation Xrotation Yrotation
                JOINT LeftShoulder
                {
                    OFFSET  10.383700   0.000000   0.000000
                    CHANNELS 3 Zrotation Xrotation Yrotation
                    JOINT LeftElbow
                    {
                        OFFSET  26.662100   0.001193   0.000980
                        CHANNELS 3 Zrotation Xrotation Yrotation
                        JOINT LeftWrist
                        {
                            OFFSET  28.869000  -0.000059  -0.000082
                            CHANNELS 3 Zrotation Xrotation Yrotation
                            JOINT LeftFinger0
                            {
                                OFFSET   2.044650  -2.323450   3.252850
                                CHANNELS 3 Zrotation Xrotation Yrotation
                                JOINT LeftFinger01
                                {
                                    OFFSET   3.088130   0.000000   0.000000
                                    CHANNELS 3 Zrotation Xrotation Yrotation
                                    JOINT LeftFinger02
                                    {
                                        OFFSET   2.639460   0.000000   0.000000
                                        CHANNELS 3 Zrotation Xrotation Yrotation
                                        End Site
                                        {
                                            OFFSET   2.582190   0.000000   0.000000
                                        }
                                    }
                                }
                            }
                            JOINT LeftFinger1
                            {
                                OFFSET   8.364480   0.000000   3.252850
                                CHANNELS 3 Zrotation Xrotation Yrotation
                                JOINT LeftFinger11
                                {
                                    OFFSET   4.646930   0.000000   0.000000
                                    CHANNELS 3 Zrotation Xrotation Yrotation
                                    JOINT LeftFinger12
                                    {
                                        OFFSET   2.323470   0.000000   0.000000
                                        CHANNELS 3 Zrotation Xrotation Yrotation
                                        End Site
                                        {
                                            OFFSET   2.273050   0.000000   0.000000
                                        }
                                    }
                                }
                            }
                            JOINT LeftFinger2
                            {
                                OFFSET   8.364490   0.000016   1.078090
                                CHANNELS 3 Zrotation Xrotation Yrotation
                                JOINT LeftFinger21
                                {
                                    OFFSET   5.111610   0.000000   0.000000
                                    CHANNELS 3 Zrotation Xrotation Yrotation
                                    JOINT LeftFinger22
                                    {
                                        OFFSET   2.788150   0.000016   0.000000
                                        CHANNELS 3 Zrotation Xrotation Yrotation
                                        End Site
                                        {
                                            OFFSET   2.727660   0.000000   0.000000
                                        }
                                    }
                                }
                            }
                            JOINT LeftFinger3
                            {
                                OFFSET   7.899780   0.000015  -1.078090
                                CHANNELS 3 Zrotation Xrotation Yrotation
                                JOINT LeftFinger31
                                {
                                    OFFSET   4.646930   0.000000   0.000000
                                    CHANNELS 3 Zrotation Xrotation Yrotation
                                    JOINT LeftFinger32
                                    {
                                        OFFSET   2.323470   0.000000   0.000000
                                        CHANNELS 3 Zrotation Xrotation Yrotation
                                        End Site
                                        {
                                            OFFSET   2.273050   0.000000   0.000000
                                        }
                                    }
                                }
                            }
                            JOINT LeftFinger4
                            {
                                OFFSET   7.435090   0.000000  -3.252850
                                CHANNELS 3 Zrotation Xrotation Yrotation
                                JOINT LeftFinger41
                                {
                                    OFFSET   3.717550   0.000000   0.000000
                                    CHANNELS 3 Zrotation Xrotation Yrotation
                                    JOINT LeftFinger42
                                    {
                                        OFFSET   1.858770   0.000000   0.000000
                                        CHANNELS 3 Zrotation Xrotation Yrotation
                                        End Site
                                        {
                                            OFFSET   1.818440   0.000000   0.000000
                                        }
                                    }
                                }
                            }
                        }
                    }
                }
            }
            JOINT RightCollar
            {
                OFFSET  -3.911910  19.017000  -0.467062
                CHANNELS 3 Zrotation Xrotation Yrotation
                JOINT RightShoulder
                {
                    OFFSET -10.383700   0.000014   0.000000
                    CHANNELS 3 Zrotation Xrotation Yrotation
                    JOINT RightElbow
                    {
                        OFFSET -26.662100   0.001225   0.001091
                        CHANNELS 3 Zrotation Xrotation Yrotation
                        JOINT RightWrist
                        {
                            OFFSET -28.869000  -0.000020  -0.000085
                            CHANNELS 3 Zrotation Xrotation Yrotation
                            JOINT RightFinger0
                            {
                                OFFSET  -2.044650  -2.323490   3.252850
                                CHANNELS 3 Zrotation Xrotation Yrotation
                                JOINT RightFinger01
                                {
                                    OFFSET  -3.088130   0.000000   0.000000
                                    CHANNELS 3 Zrotation Xrotation Yrotation
                                    JOINT RightFinger02
                                    {
                                        OFFSET  -2.639460   0.000000   0.000000
                                        CHANNELS 3 Zrotation Xrotation Yrotation
                                        End Site
                                        {
                                            OFFSET  -2.582190   0.000000   0.000000
                                        }
                                    }
                                }
                            }
                            JOINT RightFinger1
                            {
                                OFFSET  -8.364480   0.000000   3.252850
                                CHANNELS 3 Zrotation Xrotation Yrotation
                                JOINT RightFinger11
                                {
                                    OFFSET  -4.646930   0.000000   0.000000
                                    CHANNELS 3 Zrotation Xrotation Yrotation
                                    JOINT RightFinger12
                                    {
                                        OFFSET  -2.323470   0.000000   0.000000
                                        CHANNELS 3 Zrotation Xrotation Yrotation
                                        End Site
                                        {
                                            OFFSET  -2.273050   0.000000   0.000000
                                        }
                                    }
                                }
                            }
                            JOINT RightFinger2
                            {
                                OFFSET  -8.364480   0.000000   1.078090
                                CHANNELS 3 Zrotation Xrotation Yrotation
                                JOINT RightFinger21
                                {
                                    OFFSET  -5.111620   0.000000   0.000000
                                    CHANNELS 3 Zrotation Xrotation Yrotation
                                    JOINT RightFinger22
                                    {
                                        OFFSET  -2.788160   0.000000   0.000000
                                        CHANNELS 3 Zrotation Xrotation Yrotation
                                        End Site
                                        {
                                            OFFSET  -2.727660   0.000000   0.000000
                                        }
                                    }
                                }
                            }
                            JOINT RightFinger3
                            {
                                OFFSET  -7.899780   0.000000  -1.078090
                                CHANNELS 3 Zrotation Xrotation Yrotation
                                JOINT RightFinger31
                                {
                                    OFFSET  -4.646930   0.000000   0.000000
                                    CHANNELS 3 Zrotation Xrotation Yrotation
                                    JOINT RightFinger32
                                    {
                                        OFFSET  -2.323470   0.000000   0.000000
                                        CHANNELS 3 Zrotation Xrotation Yrotation
                                        End Site
                                        {
                                            OFFSET  -2.273050   0.000000   0.000000
                                        }
                                    }
                                }
                            }
                            JOINT RightFinger4
                            {
                                OFFSET  -7.435090   0.000000  -3.252850
                                CHANNELS 3 Zrotation Xrotation Yrotation
                                JOINT RightFinger41
                                {
                                    OFFSET  -3.717550   0.000000   0.000000
                                    CHANNELS 3 Zrotation Xrotation Yrotation
                                    JOINT RightFinger42
                                    {
                                        OFFSET  -1.858760   0.000000   0.000000
                                        CHANNELS 3 Zrotation Xrotation Yrotation
                                        End Site
                                        {
                                            OFFSET  -1.818440   0.000000   0.000000
                                        }
                                    }
                                }
                            }
                        }
                    }
                }
            }
        }
    }
    JOINT LeftHip
    {
        OFFSET   9.783030   0.000000   0.000000
        CHANNELS 3 Zrotation Xrotation Yrotation
        JOINT LeftKnee
        {
            OFFSET   0.000063 -41.789100   0.000608
            CHANNELS 3 Zrotation Xrotation Yrotation
            JOINT LeftAnkle
            {
                OFFSET   0.000048 -41.133200  -0.000184
                CHANNELS 3 Zrotation Xrotation Yrotation
                JOINT LeftToe
                {
                    OFFSET   0.000000  -6.358960  14.674500
                    CHANNELS 3 Zrotation Xrotation Yrotation
                    End Site
                    {
                        OFFSET   0.000000   0.000000   3.913200
                    }
                }
            }
        }
    }
    JOINT RightHip
    {
        OFFSET  -9.783030   0.000000   0.000000
        CHANNELS 3 Zrotation Xrotation Yrotation
        JOINT RightKnee
        {
            OFFSET   0.000071 -41.789100   0.001239
            CHANNELS 3 Zrotation Xrotation Yrotation
            JOINT RightAnkle
            {
                OFFSET   0.000037 -41.133200  -0.000166
                CHANNELS 3 Zrotation Xrotation Yrotation
                JOINT RightToe
                {
                    OFFSET   0.000000  -6.358960  14.674500
                    CHANNELS 3 Zrotation Xrotation Yrotation
                    End Site
                    {
                        OFFSET   0.000000   0.000000   3.913200
                    }
                }
            }
        }
    }
}
MOTION
Frames: 4
Frame Time:   0.016667
 -0.004336  89.550300  -0.626573  -0.109863  -2.938120   4.524580   1.515440   1.159890  -2.429060   3.079580   2.254070  -4.889350  -2.069430   1.020320   0.036300  -3.402730   2.060990   3.377660  -5.415840   2.118860  14.061800 -81.668800   4.383260   1.862250   0.155151   7.114920 -11.672100  12.709600   0.948949  -4.305500  38.500200  30.822400 -55.803400 -32.289900   0.005583   0.003562 -11.145000   0.006317   0.005717 -33.567400  -1.074290   1.618480 -27.476600  -0.000236   0.001298 -19.233600   0.001207  -0.008066 -30.769400  -3.726680   6.231820 -46.458500   0.003007   0.000640 -30.941400   0.005325   0.000715 -28.506300  -3.536970   6.480930 -39.173400  -0.002989  -0.007682 -26.089500   0.000809  -0.006556 -35.966400  -5.784440   7.908260 -54.548400   0.001984  -0.002289 -36.329300   0.005334  -0.004652   5.900550   4.786180  10.554900  70.635200  -6.522450  -3.531450   2.490680  -3.760590  11.367900 -23.990500   0.002132  -2.744480 -37.250700  29.663900  72.421800  18.780000  -0.000676  -0.000812   4.390030   0.000000   0.006283  28.180300  -1.033260  -1.927630  23.070800   0.006003  -0.000528  16.149500  -0.000266   0.000727  28.350400  -1.715840  -3.176280  35.094600   0.002856  -0.004418  23.373000   0.006052  -0.006242  28.407600  -4.249410  -7.803030  38.883900   0.000829  -0.003964  25.896600  -0.000692  -0.003523  39.204200  -5.639210  -6.869160  59.314300   0.006571  -0.002553  39.503300  -0.002531  -0.008450   1.987850   3.668660  -0.946662  -0.139223   1.610630  11.517700  -1.430660  -2.806320   0.410999   0.000000   0.000000   0.000000  -0.956482   5.563940  -0.071740   0.740656   1.254580 -14.518600  -0.193067  -3.250410  -0.466715   0.000000   0.000000   0.000000
 -0.004556  89.550300  -0.636331  -0.107891  -2.964670   4.522950   1.513630   1.189690  -2.405260   3.076830   2.314370  -4.842590  -2.045800   1.027830   0.036224  -3.364040   2.076300   3.316960  -5.416520   2.104980  14.017600 -81.654400   4.409700   1.838520   0.158809   7.117660 -11.696100  12.732800   0.940149  -4.289780  38.488900  30.817800 -55.796400 -32.301100   0.005576   0.003584 -11.150600   0.006326   0.005847 -33.579000  -1.081570   1.628690 -27.486300  -0.000236   0.001300 -19.240400   0.001206  -0.008066 -30.777900  -3.726690   6.229110 -46.471100   0.003004   0.000640 -30.949800   0.005323   0.000712 -28.505600  -3.539810   6.485950 -39.189500  -0.002984  -0.007676 -26.100200   0.000809  -0.006555 -35.969000  -5.788890   7.913080 -54.553700   0.001983  -0.002291 -36.332800   0.005334  -0.004654   5.923740   4.725610  10.520200  70.719500  -6.453050  -3.474030   2.410240  -3.880240  11.415800 -23.841300  -0.071627  -2.791350 -37.256300  29.551900  72.282600  18.840300  -0.000675  -0.000805   4.420180   0.000000   0.006273  28.198000  -1.037010  -1.933690  23.085400   0.006010  -0.000529  16.159800  -0.000260   0.000726  28.355300  -1.721190  -3.185360  35.143900   0.002822  -0.004420  23.405800   0.006059  -0.006259  28.404100  -4.260020  -7.822740  38.883700   0.000835  -0.003968  25.896500  -0.000681  -0.003524  39.217600  -5.655950  -6.884390  59.336800   0.006567  -0.002537  39.518300  -0.002533  -0.008453   1.980770   3.685890  -0.941077  -0.140158   1.616590  11.517700  -1.425550  -2.805550   0.404159  -0.000000   0.000000   0.000000  -0.962899   5.578410  -0.066388   0.740886   1.259030 -14.518000  -0.193468  -3.243570  -0.473501  -0.000000   0.000000  -0.000000
 -0.004775  89.550200  -0.653137  -0.104761  -3.011760   4.513560   1.511210   1.239910  -2.366350   3.073380   2.415910  -4.766170  -2.007230   1.043340   0.036148  -3.300840   2.107890   3.232330  -5.419660   2.086210  13.945600 -81.632200   4.455850   1.799900   0.164927   7.122740 -11.735300  12.762900   0.918815  -4.262500  38.475600  30.813200 -55.789300 -32.326100   0.005561   0.003605 -11.163100   0.006335   0.006033 -33.607300  -1.095480   1.647820 -27.509700  -0.000238   0.001305 -19.256800   0.001202  -0.008066 -30.796200  -3.726730   6.223560 -46.498400   0.002998   0.000641 -30.967900   0.005318   0.000705 -28.503900  -3.547560   6.499870 -39.218800  -0.002971  -0.007659 -26.119700   0.000806  -0.006553 -35.973700  -5.798830   7.924540 -54.563500   0.001979  -0.002297 -36.339300   0.005333  -0.004660   5.954240   4.637390  10.458100  70.855000  -6.318400  -3.325570   2.281970  -4.078640  11.484900 -23.576700  -0.195189  -2.882230 -37.262600  29.439400  72.144400  18.900600  -0.000672  -0.000797   4.450330   0.000000   0.006264  28.215800  -1.040770  -1.939750  23.099900   0.006027  -0.000530  16.170000  -0.000245   0.000726  28.363800  -1.726540  -3.194440  35.229000   0.002749  -0.004426  23.462500   0.006075  -0.006300  28.398500  -4.270620  -7.842450  38.882400   0.000849  -0.003979  25.895700  -0.000651  -0.003528  39.244700  -5.672690  -6.899620  59.380400   0.006559  -0.002501  39.547300  -0.002538  -0.008460   1.970480   3.717300  -0.929816  -0.142137   1.627680  11.517800  -1.417360  -2.804780   0.397319  -0.000000   0.000000   0.000000  -0.969876   5.606530  -0.055192   0.737933   1.265190 -14.513700  -0.194601  -3.231990  -0.486266   0.000000   0.000000   0.000000
 -0.001287  89.550100  -0.667829  -0.102592  -3.055560   4.492060   1.510700   1.280870  -2.335180   3.073460   2.498660  -4.705020  -1.978450   1.061270   0.036192  -3.253760   2.144270   3.197260  -5.427280   2.080840  13.888300 -81.617300   4.496440   1.772620   0.170509   7.129500 -11.767200  12.768600   0.877476  -4.236660  38.457800  30.815900 -55.811400 -32.362900   0.005544   0.003601 -11.181500   0.006333   0.006124 -33.654200  -1.114340   1.673300 -27.548600  -0.000242   0.001313 -19.284000   0.001198  -0.012726 -30.823300  -3.726790   6.215890 -46.538700   0.002989   0.000642 -30.994800   0.005308   0.000694 -28.500400  -3.562710   6.527330 -39.255300  -0.002952  -0.007632 -26.144000   0.000801  -0.006550 -35.979200  -5.814950   7.943890 -54.576100   0.001972  -0.002306 -36.346600   0.005333  -0.004669   5.953120   4.596990  10.395800  70.963400  -6.184830  -3.098010   2.183560  -4.248100  11.520700 -23.331700  -0.302299  -2.988220 -37.344400  29.514000  72.158500  18.785800  -0.000668  -0.000803   4.392940   0.000000   0.006280  28.205400  -1.011190  -1.885720  23.090700   0.006052  -0.000530  16.163500  -0.000221   0.000726  28.372000  -1.719180  -3.180140  35.306800   0.002646  -0.004433  23.514300   0.006099  -0.006362  28.398700  -4.251370  -7.807900  38.846500   0.000870  -0.003995  25.871800  -0.000604  -0.003533  39.288700  -5.651830  -6.865540  59.442400   0.006547  -0.002447  39.588500  -0.002546  -0.008472   1.965430   3.746940  -0.915318  -0.145221   1.642260  11.509100  -1.411080  -2.805640   0.410959  -0.000000   0.000000  -0.000000  -0.966709   5.638180  -0.038389   0.728134   1.267170 -14.494500  -0.197347  -3.222530  -0.503396   0.000000   0.000000  -0.000000
